<svg width="18" height="14" viewBox="0 0 18 14" fill="none" xmlns="http://www.w3.org/2000/svg">
<path d="M4.99294 6.97902V14H0.964966L4.99294 6.97902Z" fill="black"/>
<path d="M13.007 6.97902V14H17.035L13.007 6.97902Z" fill="black"/>
<path d="M9.28621 8.53147C10.0764 8.47552 10.7967 8.59441 11.3212 8.7972V4.04196L8.9925 0L6.69177 4.04196V9.54545H6.69877C7.09737 9.14685 8.16733 8.63636 9.28621 8.53147Z" fill="black"/>
<path d="M11.3142 10.6154C10.8387 10.2937 10.2442 10.1049 9.58691 10.1049C8.44705 10.1049 7.53093 10.8042 7.02744 11.6643C6.80366 12.049 6.69177 12.6294 6.69177 13.0979C6.69177 13.4266 6.74772 13.7273 6.85261 14H11.3142V10.6154Z" fill="black"/>
</svg>
