<svg width="200" height="40" viewBox="0 0 200 40" fill="none" xmlns="http://www.w3.org/2000/svg">
<path d="M182.736 29.0002V12.44H186.048V21.1042L190.44 16.3282H193.704L193.968 16.8802L189.576 21.6082L194.304 28.4482L194.04 29.0002H190.8L187.392 23.9842L186.048 25.4482V29.0002H182.736Z" fill="#030303"/>
<path d="M172.938 29.0001V17.9601C173.53 16.8721 174.665 16.3281 176.345 16.3281H178.938L180.378 17.4081V19.2081H177.233C176.753 19.2081 176.425 19.3281 176.249 19.5681V29.0001H172.938Z" fill="#030303"/>
<path d="M158.638 25.1121V20.2161C158.638 17.6241 159.934 16.3281 162.526 16.3281H165.886C168.478 16.3281 169.774 17.6241 169.774 20.2161V25.1121C169.774 27.7041 168.478 29.0001 165.886 29.0001H162.526C159.934 29.0001 158.638 27.7041 158.638 25.1121ZM161.95 25.3521C161.95 25.8641 162.206 26.1201 162.718 26.1201H165.694C166.206 26.1201 166.462 25.8641 166.462 25.3521V19.9761C166.462 19.4641 166.206 19.2081 165.694 19.2081H162.718C162.206 19.2081 161.95 19.4641 161.95 19.9761V25.3521Z" fill="#030303"/>
<path d="M137.802 16.8321L138.162 16.3281H140.946L142.866 26.1201H143.034L145.338 16.3281H149.01L151.338 26.1201H151.506L153.426 16.3281H156.21L156.57 16.8321L154.026 29.0001H149.082L147.186 20.2881L145.29 29.0001H140.346L137.802 16.8321Z" fill="#030303"/>
<path d="M128.734 25.1119V12.4399H132.046V16.3279H136.174V19.2079H132.046V25.3519C132.046 25.8639 132.302 26.1199 132.814 26.1199H136.414V27.9199L134.974 28.9999H132.622C130.03 28.9999 128.734 27.7039 128.734 25.1119Z" fill="#030303"/>
<path d="M114.669 25.1121V20.2161C114.669 17.6241 115.965 16.3281 118.557 16.3281H121.677C124.269 16.3281 125.565 17.6241 125.565 20.2161V23.8881H117.981V25.3521C117.981 25.8641 118.237 26.1201 118.749 26.1201H125.085V27.9201L123.645 29.0001H118.557C115.965 29.0001 114.669 27.7041 114.669 25.1121ZM117.981 21.3441H122.253V19.9761C122.253 19.4641 121.997 19.2081 121.485 19.2081H118.749C118.237 19.2081 117.981 19.4641 117.981 19.9761V21.3441Z" fill="#030303"/>
<path d="M97.3828 28.9999V12.4399H101.127L107.703 23.3119V12.4399H111.159V28.9999H107.415L100.839 18.1279V28.9999H97.3828Z" fill="#030303"/>
<path d="M81.5781 29.0001V17.9601C82.1701 16.8721 83.3061 16.3281 84.9861 16.3281H87.5781L89.0181 17.4081V19.2081H85.8741C85.3941 19.2081 85.0661 19.3281 84.8901 19.5681V29.0001H81.5781Z" fill="#030303"/>
<path d="M67.5132 25.1121V20.2161C67.5132 17.6241 68.8092 16.3281 71.4012 16.3281H74.5212C77.1132 16.3281 78.4092 17.6241 78.4092 20.2161V23.8881H70.8252V25.3521C70.8252 25.8641 71.0812 26.1201 71.5932 26.1201H77.9292V27.9201L76.4892 29.0001H71.4012C68.8092 29.0001 67.5132 27.7041 67.5132 25.1121ZM70.8252 21.3441H75.0972V19.9761C75.0972 19.4641 74.8412 19.2081 74.3292 19.2081H71.5932C71.0812 19.2081 70.8252 19.4641 70.8252 19.9761V21.3441Z" fill="#030303"/>
<path d="M53.5488 29.0002V12.44H56.8608V16.3282H60.5568C63.1488 16.3282 64.4448 17.6242 64.4448 20.2162V25.1122C64.4448 27.7042 63.1488 29.0002 60.5568 29.0002H53.5488ZM56.8608 26.1202H60.3648C60.8768 26.1202 61.1328 25.8642 61.1328 25.3522V19.9762C61.1328 19.4642 60.8768 19.2082 60.3648 19.2082H56.8608V26.1202Z" fill="#030303"/>
<path d="M46.7036 15.56V12.44H50.1596V15.56H46.7036ZM46.7756 29V17.328H50.0876V29H46.7756Z" fill="#030303"/>
<path d="M33 28.9999V12.4399H44.328V15.5599H36.456V19.6399H43.608V22.7599H36.456V28.9999H33Z" fill="#030303"/>
<path fill-rule="evenodd" clip-rule="evenodd" d="M7.72 12H23.5L26.5 7H8.5L7.72 12ZM9 36.5L19.5 18.5H12.83L14 13H7.56L6 23H11.87L9 36.5Z" fill="#030303"/>
</svg>
