<svg width="274" height="100" viewBox="0 0 274 100" fill="none" xmlns="http://www.w3.org/2000/svg">
<path d="M177.887 42.0921C173.4 42.0921 169.66 44.2092 167.042 47.447V42.8393H163.552V83.4371H167.042V68.8667C169.66 72.2291 173.4 74.2216 177.887 74.2216C186.115 74.2216 192.846 66.9987 192.846 58.1569C192.722 49.315 186.115 42.0921 177.887 42.0921ZM177.887 70.8592C171.53 70.8592 166.419 65.2552 166.419 58.2814C166.419 51.3075 171.53 45.7036 177.887 45.7036C184.245 45.7036 189.356 51.3075 189.356 58.2814C189.231 65.1307 184.12 70.8592 177.887 70.8592Z" fill="black"/>
<path d="M138.495 30.2615C126.653 30.2615 117.054 40.3487 117.054 52.6775C117.054 65.0062 126.653 75.0934 138.495 75.0934C150.338 75.0934 159.936 65.0062 159.936 52.6775C159.936 40.3487 150.338 30.2615 138.495 30.2615ZM138.495 71.731C128.523 71.731 120.42 63.1382 120.42 52.6775C120.42 42.2167 128.523 33.6239 138.495 33.6239C148.468 33.6239 156.571 42.2167 156.571 52.6775C156.571 63.2628 148.468 71.731 138.495 71.731Z" fill="black"/>
<path d="M242.211 42.2168C240.964 42.2168 239.842 42.5904 238.721 43.2131C236.477 44.4584 234.856 46.2019 233.859 48.568C233.859 48.568 233.859 48.6925 233.734 48.6925C233.734 46.8245 233.734 44.9565 233.734 43.0885H230.244C230.244 53.1757 230.244 63.2629 230.244 73.4746C231.366 73.4746 232.612 73.4746 233.734 73.4746C233.734 73.35 233.734 73.35 233.734 73.2255C233.734 67.746 233.734 62.8893 233.734 57.5344C233.734 55.2928 234.108 53.4248 234.856 51.6813C235.479 50.0624 236.477 48.568 237.848 47.4472C239.469 46.0773 241.338 45.4547 243.458 45.8283C243.832 45.8283 244.081 45.9528 244.455 46.0773C244.704 45.0811 245.078 43.8357 245.327 42.7149C244.455 42.3413 243.084 42.2168 242.211 42.2168Z" fill="black"/>
<path d="M210.922 42.2168C202.694 42.2168 195.963 49.4397 195.963 58.2815C195.963 67.1234 202.694 74.3463 210.922 74.3463C216.781 74.3463 221.892 70.6103 224.385 65.2554L221.393 63.5119C219.523 67.8706 215.659 70.8594 211.047 70.8594C205.063 70.8594 200.201 65.7535 199.578 59.4023H225.881C225.881 59.0287 225.881 58.6551 225.881 58.2815C225.881 48.817 219.648 42.2168 210.922 42.2168ZM210.922 45.7037C217.155 45.7037 221.518 49.9378 222.266 56.289H199.578C200.451 50.3114 205.188 45.7037 210.922 45.7037Z" fill="black"/>
<path d="M270.384 42.8393V47.447C267.766 44.0846 264.026 42.0921 259.539 42.0921C251.311 42.0921 244.58 49.315 244.58 58.1569C244.58 66.9987 251.311 74.2216 259.539 74.2216C264.026 74.2216 267.766 72.1046 270.384 68.8667V73.4744H273.874V42.8393H270.384ZM259.539 70.8592C253.181 70.8592 248.07 65.2552 248.07 58.2814C248.07 51.3075 253.181 45.7036 259.539 45.7036C265.896 45.7036 271.007 51.3075 271.007 58.2814C271.007 65.1307 265.896 70.8592 259.539 70.8592Z" fill="black"/>
<path d="M99.8048 50.0622C99.8048 64.8817 93.3498 78.2067 83.1706 87.4221C70.3847 93.6488 58.4677 89.2901 54.4954 86.5504C67.033 83.8107 76.5915 68.4931 76.5915 50.0622C76.5915 31.6314 67.033 16.3138 54.4954 13.5741C58.4677 10.8344 70.3847 6.4757 83.1706 12.7023C93.3498 21.9178 99.8048 35.2428 99.8048 50.0622Z" fill="#FF1B2D"/>
<path d="M33.5166 21.7933C28.0546 28.269 24.4547 37.9826 24.2064 48.8169V51.1831C24.4547 62.0174 28.0546 71.731 33.5166 78.2067C40.7164 87.5467 51.2679 93.3997 63.1849 93.3997C70.5089 93.3997 77.3364 91.1582 83.1707 87.2976C74.3571 95.2677 62.6884 100 49.9024 100C49.1576 100 48.2887 100 47.5439 100C21.103 98.8792 0 76.9614 0 50.0623C0 22.4159 22.3444 0 49.9024 0C50.0266 0 50.0266 0 50.1507 0C62.8125 0 74.357 4.85677 83.1706 12.7023C77.3363 8.84183 70.5089 6.60025 63.1849 6.60025C51.2679 6.60025 40.5923 12.5778 33.5166 21.7933Z" fill="#FF1B2D"/>
</svg>
