<svg width="92" height="30" viewBox="0 0 92 30" fill="none" xmlns="http://www.w3.org/2000/svg">
<path d="M11.653 29.9488L0.193968 18.4832C0.176338 18.4687 0.162143 18.4504 0.1524 18.4297C0.142656 18.409 0.137604 18.3864 0.137604 18.3635C0.137604 18.3407 0.142656 18.3181 0.1524 18.2974C0.162143 18.2767 0.176338 18.2584 0.193968 18.2438L21.8051 2.38489C22.5946 1.59821 23.6637 1.15649 24.7783 1.15649C25.8928 1.15649 26.9619 1.59821 27.7514 2.38489C28.1425 2.77497 28.4528 3.23837 28.6645 3.74855C28.8762 4.25874 28.9851 4.80567 28.9851 5.35804C28.9851 5.9104 28.8762 6.45734 28.6645 6.96752C28.4528 7.4777 28.1425 7.9411 27.7514 8.33118L11.8989 29.9294C11.8846 29.9475 11.8666 29.9625 11.8462 29.9734C11.8258 29.9843 11.8033 29.9909 11.7802 29.9927C11.7571 29.9945 11.7339 29.9916 11.712 29.984C11.6902 29.9764 11.6701 29.9645 11.653 29.9488Z" fill="url(#paint0_linear_2066_52)"/>
<path style="mix-blend-mode:screen" d="M21.9116 29.8324L15.0805 28.002C14.9923 27.9802 14.9093 27.9409 14.8366 27.8864C14.7638 27.8319 14.7028 27.7635 14.657 27.685C14.6112 27.6065 14.5816 27.5196 14.5699 27.4295C14.5583 27.3394 14.5649 27.2479 14.5892 27.1603L20.7168 4.29185C20.8598 3.75836 21.1064 3.25825 21.4426 2.82007C21.7788 2.3819 22.1981 2.01424 22.6764 1.73808C23.1547 1.46193 23.6827 1.28269 24.2303 1.2106C24.7779 1.13851 25.3343 1.17498 25.8678 1.31793C26.9452 1.60662 27.8638 2.3115 28.4216 3.2775C28.9793 4.24349 29.1304 5.39148 28.8417 6.46891L22.7141 29.3374C22.6704 29.5077 22.5624 29.6545 22.4127 29.7468C22.2631 29.8391 22.0834 29.8698 21.9116 29.8324Z" fill="url(#paint1_linear_2066_52)"/>
<path style="mix-blend-mode:screen" d="M28.7887 4.53121C29.0459 5.47089 28.9201 6.47418 28.4389 7.32129C27.9578 8.16841 27.1605 8.79028 26.2217 9.05067L2.32821 15.4529C2.28677 15.464 2.24262 15.4582 2.20546 15.4367C2.16831 15.4153 2.1412 15.38 2.13009 15.3385L0.0417909 7.54487C0.0306872 7.50343 0.0364997 7.45928 0.057949 7.42213C0.0794002 7.38497 0.114733 7.35786 0.156171 7.34676L23.0371 1.21582C24.2392 0.900747 25.517 1.07207 26.5936 1.69266C27.6702 2.31325 28.4589 3.33311 28.7887 4.53121Z" fill="url(#paint2_linear_2066_52)"/>
<path d="M39.3503 21H36.6503V8.94H43.3103C46.2803 8.94 47.9723 10.254 47.9723 12.558C47.9723 14.52 46.8383 15.69 44.5703 15.906V16.05C45.6503 16.338 46.0643 16.914 46.5143 17.76L48.2603 21H45.1283L43.4723 17.868C42.9863 16.932 42.5363 16.626 41.1323 16.626H39.3503V21ZM39.3503 11.37V14.592H43.2923C44.5703 14.592 45.1463 14.232 45.1463 12.972C45.1463 11.784 44.5703 11.37 43.2923 11.37H39.3503Z" fill="#FF4433"/>
<path d="M54.4412 21.18C50.7512 21.18 48.4832 18.732 48.4832 14.97C48.4832 11.208 51.0392 8.76 55.1792 8.76C58.9592 8.76 61.3532 10.524 61.3532 13.422V13.566H58.3472V13.422C58.3472 12.018 57.4292 11.352 55.1072 11.352C52.3712 11.352 51.3452 12.288 51.3452 14.97C51.3452 17.652 52.3352 18.588 54.9812 18.588C57.7532 18.588 58.5992 18.156 58.6712 16.626H54.5852V14.628H61.3712V21H58.8692V18.408H58.7252C58.3112 19.992 57.0512 21.18 54.4412 21.18Z" fill="#15FB15"/>
<path d="M69.8566 21H62.2786V8.94H69.5146C71.9806 8.94 73.3126 9.984 73.3126 11.874C73.3126 13.368 72.5206 14.448 70.5046 14.592V14.754C72.7366 14.916 73.8166 16.032 73.8166 17.652C73.8166 19.704 72.5566 21 69.8566 21ZM64.9786 11.37V13.728H69.2086C70.1986 13.728 70.6126 13.386 70.6126 12.558C70.6126 11.73 70.1806 11.37 69.1726 11.37H64.9786ZM64.9786 15.96V18.57H69.5326C70.6306 18.57 71.0806 18.228 71.0806 17.256C71.0806 16.302 70.6306 15.96 69.5326 15.96H64.9786Z" fill="#1E90FF"/>
<path d="M79.4931 18.984H77.1711V16.086H74.3091V13.854H77.1711V10.956H79.4931V13.854H82.3551V16.086H79.4931V18.984ZM88.3264 18.984H86.0044V16.086H83.1424V13.854H86.0044V10.956H88.3264V13.854H91.1884V16.086H88.3264V18.984Z" fill="white"/>
<defs>
<linearGradient id="paint0_linear_2066_52" x1="27.2479" y1="2.89536" x2="6.2475" y2="23.8958" gradientUnits="userSpaceOnUse">
<stop stop-color="#00FF00"/>
<stop offset="1" stop-color="#3D9C3D" stop-opacity="0"/>
</linearGradient>
<linearGradient id="paint1_linear_2066_52" x1="25.6629" y1="2.12822" x2="18.6053" y2="28.4676" gradientUnits="userSpaceOnUse">
<stop stop-color="#0000FF"/>
<stop offset="0.2" stop-color="#0718FA" stop-opacity="0.78"/>
<stop offset="0.59" stop-color="#1446EF" stop-opacity="0.37"/>
<stop offset="0.87" stop-color="#1C63E9" stop-opacity="0.1"/>
<stop offset="1" stop-color="#1F6EE6" stop-opacity="0"/>
</linearGradient>
<linearGradient id="paint2_linear_2066_52" x1="29.529" y1="4.83162" x2="3.08185" y2="11.9181" gradientUnits="userSpaceOnUse">
<stop stop-color="#FF0000"/>
<stop offset="0.2" stop-color="#F41613" stop-opacity="0.78"/>
<stop offset="0.59" stop-color="#DD4136" stop-opacity="0.37"/>
<stop offset="0.87" stop-color="#CF5C4D" stop-opacity="0.1"/>
<stop offset="1" stop-color="#CA6756" stop-opacity="0"/>
</linearGradient>
</defs>
</svg>
